<svg width="275" height="275" viewBox="0 0 275 275" fill="none" xmlns="http://www.w3.org/2000/svg">
<g clip-path="url(#clip0_7_3)">
<path d="M146.362 275.269C97.5749 275.269 48.9217 275.269 0.268555 275.269C0.268555 183.602 0.268555 91.9352 0.268555 0.268555C91.9352 0.268555 183.602 0.268555 275.269 0.268555C275.269 91.9352 275.269 183.602 275.269 275.269C232.345 275.269 189.421 275.269 146.362 275.269ZM176.188 54.4912C176.188 54.4912 176.222 54.4838 176.117 54.3234C173.943 53.425 171.776 52.5084 169.588 51.6452C169.201 51.4923 168.726 51.5616 168.127 51.3673C167.327 51.1159 166.527 50.8646 165.765 50.4619C162.113 49.5201 158.461 48.5783 154.565 47.5512C152.389 47.3417 150.213 47.1321 148.086 46.7892C146.162 46.5913 144.238 46.3933 142.106 46.1371C137.168 46.2856 132.229 46.4342 127.026 46.6383C126.887 46.7463 126.748 46.8544 126.693 46.9998L126.738 46.9291C126.738 46.9291 126.659 46.9641 126.402 46.9746C121.359 47.2082 116.539 48.5525 111.63 49.7548C109.608 50.4503 107.585 51.1459 105.386 51.8634C105.212 52.0018 105.058 52.1934 104.86 52.2702C102.847 53.0511 100.772 53.694 98.818 54.6005C88.8274 59.2363 80.0091 65.5659 72.2982 73.407C69.8606 75.8857 67.5529 78.5217 65.4272 81.2722C58.1321 90.712 52.7081 101.1 49.5704 112.676C48.1497 117.918 47.082 123.187 46.5852 128.679C46.4876 130.007 46.2871 131.337 46.3112 132.663C46.3934 137.181 46.5547 141.698 46.6708 146.507C47.1363 151.15 47.9065 155.722 49.0301 160.271C50.3413 165.579 52.0074 170.742 54.361 175.644C66.2426 200.392 85.0882 217.246 111.463 225.737C113.588 226.293 115.713 226.848 118.058 227.461C118.921 227.628 119.784 227.795 120.847 228.005C125.491 228.518 130.135 229.032 135.029 229.609C139.37 229.428 143.712 229.268 148.051 229.047C148.859 229.006 149.648 228.674 150.458 228.552C151.2 228.441 151.976 228.517 152.704 228.36C154.675 227.933 156.621 227.399 158.59 226.963C159.773 226.7 161.013 226.658 162.166 226.309C164.041 225.742 165.864 225.004 167.71 224.34C170.167 223.455 172.684 222.704 175.068 221.652C177.76 220.465 180.377 219.087 182.95 217.653C191.161 213.077 198.241 207.064 204.688 200.276C209.919 194.768 214.272 188.601 217.972 181.987C219.442 179.359 220.613 176.564 222.053 173.717C222.467 172.671 222.88 171.624 223.253 170.583C223.253 170.583 223.264 170.622 223.398 170.484C224.364 167.399 225.33 164.314 226.388 161.032C227.214 156.331 228.04 151.631 228.947 146.845C229.511 140.8 229.551 134.754 229 128.493C228.625 125.896 228.25 123.3 227.854 120.528C226.938 116.927 226.022 113.326 225.071 109.503C223.502 105.534 222.151 101.461 220.324 97.6142C214.511 85.3698 206.278 74.9757 195.732 66.4487C190.763 62.4313 185.459 58.9129 179.545 56.0114C178.424 55.4932 177.303 54.975 176.188 54.4912Z" fill="#0B0B0B"/>
<path d="M111.723 49.9166C116.539 48.5526 121.359 47.2082 126.526 46.9653C126.651 46.956 126.609 46.9625 126.609 46.9625C126.748 46.8544 126.887 46.7464 127.202 46.6834C131.917 46.6363 136.455 46.5441 141.117 46.454C143.507 46.6115 145.772 46.767 148.038 46.9225C150.213 47.1321 152.389 47.3417 154.697 47.6787C155.014 47.9053 155.189 48.0482 155.387 48.0968C158.832 48.9425 162.28 49.7766 165.727 50.6132C166.527 50.8646 167.327 51.1159 168.269 51.4903C168.947 51.8174 169.48 52.0275 170.019 52.2244C172.086 52.9798 174.154 53.731 176.222 54.4838C176.222 54.4838 176.188 54.4912 176.225 54.5606C177.403 55.1333 178.543 55.6365 179.683 56.1397C185.459 58.9129 190.763 62.4313 195.732 66.4487C206.278 74.9757 214.511 85.3698 220.324 97.6142C222.151 101.461 223.502 105.534 225.078 109.708C225.079 110.047 225.045 110.187 225.075 110.313C225.876 113.766 226.682 117.218 227.505 120.666C227.514 120.706 227.746 120.692 227.875 120.703C228.25 123.3 228.625 125.896 228.948 128.695C228.952 131.523 229.059 134.148 229.049 136.772C229.037 140.158 228.931 143.544 228.866 146.93C228.04 151.631 227.214 156.332 226.274 161.179C225.608 162.996 225.035 164.659 224.51 166.337C224.066 167.756 223.677 169.193 223.264 170.623C223.264 170.623 223.253 170.583 223.184 170.622C222.717 171.723 222.318 172.784 221.92 173.846C220.613 176.564 219.442 179.359 217.972 181.987C214.272 188.601 209.919 194.768 204.688 200.276C198.241 207.064 191.161 213.077 182.95 217.653C180.377 219.087 177.76 220.465 175.068 221.652C172.684 222.704 170.167 223.455 167.71 224.34C165.864 225.004 164.041 225.742 162.166 226.309C161.013 226.658 159.773 226.7 158.59 226.963C156.621 227.399 154.675 227.933 152.704 228.36C151.976 228.517 151.2 228.441 150.458 228.552C149.648 228.674 148.859 229.006 148.051 229.047C143.712 229.268 139.37 229.428 134.838 229.503C134.364 229.297 134.086 229.134 133.795 229.106C130.89 228.826 127.983 228.561 125.076 228.305C123.601 228.176 122.124 228.075 120.647 227.962C119.784 227.795 118.921 227.628 117.897 227.359C115.61 226.705 113.484 226.154 111.359 225.602C85.0882 217.246 66.2426 200.392 54.3611 175.644C52.0074 170.742 50.3413 165.579 49.0302 160.271C47.9065 155.722 47.1363 151.15 46.6643 146.281C46.663 140.235 46.6681 134.415 46.6732 128.595C47.082 123.187 48.1497 117.918 49.5704 112.676C52.7081 101.1 58.1321 90.7121 65.4273 81.2723C67.5529 78.5217 69.8607 75.8857 72.2982 73.407C80.0091 65.566 88.8274 59.2363 98.818 54.6005C100.772 53.694 102.847 53.0511 104.86 52.2702C105.058 52.1934 105.212 52.0018 105.581 51.8525C107.759 51.1999 109.741 50.5582 111.723 49.9166ZM145.505 218.493C146.87 218.256 148.235 218.019 149.827 217.795C152.443 217.173 155.058 216.549 157.675 215.93C159.22 215.564 160.803 215.315 162.304 214.819C164.14 214.211 165.917 213.419 167.705 212.673C187.112 204.583 201.426 191.063 210.779 172.257C213.056 167.677 214.826 162.882 216.077 157.95C217.417 152.67 218.309 147.274 218.488 141.881C218.567 141.918 218.643 141.96 218.725 141.984C218.742 141.989 218.805 141.924 218.805 141.891C218.807 139.178 218.812 136.465 218.785 133.752C218.784 133.602 218.521 133.454 218.342 133.059C218.148 130.724 218.105 128.364 217.732 126.059C216.705 119.724 215.186 113.511 212.677 107.572C204.555 88.3429 191.314 73.9312 172.424 64.87C164.85 61.2366 156.846 59.0108 148.434 57.7786C146.929 57.568 145.424 57.3574 143.842 56.9627C143.563 56.8633 143.285 56.6791 143.006 56.6775C139.522 56.6572 136.037 56.6544 132.553 56.6779C132.232 56.6801 131.912 56.8932 131.401 57.106C130.073 57.2319 128.732 57.2778 127.422 57.5056C126.026 57.7484 124.66 58.1634 123.058 58.5426C121.743 58.8188 120.408 59.0225 119.118 59.3851C115.646 60.3609 112.083 61.0376 108.78 62.5869C107.676 63.1049 106.416 63.2913 105.312 63.8102C103.473 64.675 101.688 65.6613 99.9038 66.6383C78.695 78.249 64.9815 95.6837 59.1861 119.217C58.4864 122.058 58.1646 124.992 57.5214 128.007C57.415 128.335 57.222 128.661 57.2151 128.991C57.1122 133.88 56.9909 138.768 56.9841 143.657C56.9826 144.718 57.4126 145.78 57.7149 147.083C58.2538 150.167 58.6717 153.278 59.356 156.33C60.9579 163.474 63.584 170.247 67.1977 176.618C76.015 192.165 88.4807 203.79 104.731 211.275C108.73 213.116 112.806 214.812 117.193 215.911C118.8 216.338 120.408 216.765 122.242 217.217C123.079 217.254 123.928 217.214 124.75 217.347C125.892 217.532 127.014 217.847 128.299 218.212C128.859 218.323 129.419 218.435 130.137 218.697C130.305 218.751 130.472 218.85 130.641 218.854C135.15 218.952 139.658 219.054 144.168 219.105C144.548 219.11 144.931 218.766 145.505 218.493Z" fill="#FBC940"/>
<path d="M140.993 46.452C136.455 46.5441 131.917 46.6363 127.335 46.6556C132.229 46.4342 137.168 46.2857 142.111 46.1792C141.742 46.2982 141.367 46.3751 140.993 46.452Z" fill="#EBCD50"/>
<path d="M46.6292 128.637C46.6681 134.415 46.663 140.235 46.6719 146.135C46.5547 141.698 46.3934 137.181 46.3112 132.663C46.2871 131.337 46.4877 130.007 46.6292 128.637Z" fill="#F0E070"/>
<path d="M228.906 146.888C228.931 143.544 229.037 140.158 229.05 136.772C229.059 134.148 228.952 131.523 228.936 128.803C229.551 134.754 229.511 140.8 228.906 146.888Z" fill="#F0E070"/>
<path d="M120.747 227.983C122.124 228.076 123.601 228.176 125.076 228.305C127.983 228.561 130.89 228.826 133.795 229.106C134.086 229.134 134.364 229.297 134.714 229.471C130.135 229.032 125.491 228.518 120.747 227.983Z" fill="#F0E070"/>
<path d="M165.746 50.5376C162.28 49.7766 158.832 48.9425 155.387 48.0968C155.189 48.0483 155.014 47.9053 154.819 47.7214C158.461 48.5783 162.113 49.5201 165.746 50.5376Z" fill="#F0E070"/>
<path d="M227.865 120.616C227.746 120.692 227.514 120.706 227.505 120.666C226.682 117.218 225.876 113.766 225.075 110.313C225.045 110.187 225.079 110.047 225.094 109.819C226.022 113.326 226.938 116.927 227.865 120.616Z" fill="#F0E070"/>
<path d="M223.331 170.553C223.677 169.193 224.066 167.756 224.51 166.337C225.035 164.659 225.608 162.996 226.228 161.277C225.33 164.314 224.364 167.399 223.331 170.553Z" fill="#EAD767"/>
<path d="M176.169 54.4036C174.154 53.731 172.086 52.9798 170.019 52.2244C169.48 52.0275 168.947 51.8174 168.351 51.5708C168.726 51.5616 169.201 51.4923 169.588 51.6452C171.776 52.5084 173.943 53.425 176.169 54.4036Z" fill="#EAD767"/>
<path d="M111.411 225.669C113.484 226.154 115.61 226.705 117.787 227.331C115.713 226.848 113.588 226.293 111.411 225.669Z" fill="#F0E070"/>
<path d="M141.117 46.454C141.367 46.3751 141.742 46.2982 142.216 46.2084C144.238 46.3933 146.162 46.5913 148.062 46.8558C145.772 46.767 143.507 46.6115 141.117 46.454Z" fill="#F0E070"/>
<path d="M111.676 49.8357C109.741 50.5582 107.759 51.1998 105.67 51.8415C107.585 51.1459 109.608 50.4503 111.676 49.8357Z" fill="#EAD767"/>
<path d="M179.614 56.0756C178.543 55.6365 177.403 55.1333 176.222 54.5434C177.303 54.975 178.424 55.4932 179.614 56.0756Z" fill="#EAD767"/>
<path d="M221.987 173.781C222.318 172.784 222.717 171.723 223.204 170.619C222.88 171.624 222.467 172.671 221.987 173.781Z" fill="#EAD767"/>
<path d="M126.65 46.98C126.61 46.9618 126.65 46.9554 126.654 46.9593C126.658 46.9633 126.736 46.929 126.736 46.929C126.736 46.929 126.691 46.9982 126.65 46.98Z" fill="#EBCD50"/>
<path d="M117.145 215.74C112.806 214.812 108.73 213.116 104.731 211.275C88.4807 203.79 76.015 192.165 67.1977 176.618C63.584 170.247 60.9579 163.474 59.356 156.33C58.6717 153.278 58.2538 150.167 57.6822 146.855C56.926 140.379 57.0012 134.131 57.6676 127.883C58.1646 124.992 58.4864 122.058 59.1861 119.217C64.9815 95.6837 78.695 78.2489 99.9038 66.6383C101.688 65.6613 103.473 64.675 105.312 63.8102C106.416 63.2913 107.676 63.1049 108.78 62.5869C112.083 61.0376 115.645 60.3609 119.118 59.3851C120.408 59.0225 121.743 58.8188 123.278 58.5173C123.667 58.4453 123.835 58.3826 124.008 58.3541C132.157 57.0118 140.326 56.8854 148.514 57.9544C156.846 59.0108 164.85 61.2366 172.424 64.8699C191.314 73.9312 204.555 88.3429 212.677 107.572C215.186 113.511 216.705 119.724 217.732 126.059C218.105 128.364 218.148 130.724 218.344 133.248C218.361 133.527 218.375 133.617 218.38 133.829C218.443 134.737 218.517 135.523 218.564 136.422C218.488 138.286 218.437 140.037 218.386 141.788C218.309 147.274 217.417 152.67 216.077 157.95C214.826 162.882 213.056 167.677 210.779 172.257C201.426 191.063 187.112 204.583 167.705 212.673C165.917 213.419 164.14 214.211 162.304 214.818C160.803 215.315 159.22 215.564 157.675 215.93C155.058 216.549 152.443 217.173 149.653 217.703C144.814 217.859 140.15 218.177 135.48 218.327C133.04 218.406 130.59 218.189 128.145 218.106C127.014 217.847 125.892 217.532 124.75 217.347C123.928 217.214 123.079 217.254 122.128 217.118C120.391 216.593 118.768 216.166 117.145 215.74ZM110.958 128.652C110.939 128.73 110.948 128.804 110.888 129.076C110.177 131.163 111.135 132.932 113.464 133.624C113.637 133.66 113.809 133.728 113.982 133.728C118.965 133.735 123.948 133.741 128.932 133.726C129.316 133.724 129.7 133.565 130.272 133.491C132.577 132.566 133.386 130.542 132.223 128.427C131.656 127.951 131.088 127.476 130.527 127.018C130.527 127.018 130.54 127.004 130.438 126.818C129.873 126.717 129.309 126.532 128.743 126.529C124.066 126.505 119.387 126.441 114.714 126.57C113.668 126.599 112.641 127.337 111.651 127.774C111.651 127.774 111.616 127.736 111.476 127.819C111.324 128.042 111.172 128.266 110.996 128.518C110.996 128.518 111.013 128.551 110.958 128.652ZM102.689 194.107C102.689 194.107 102.742 194.102 102.882 194.196C103.229 194.381 103.577 194.566 103.921 194.718C103.921 194.718 103.888 194.723 103.981 194.883C104.588 195.199 105.195 195.515 105.798 195.796C105.798 195.796 105.763 195.802 105.854 195.961C106.189 196.115 106.524 196.27 106.85 196.369C106.85 196.369 106.795 196.381 106.911 196.53C107.61 196.853 108.31 197.175 108.992 197.447C108.992 197.447 108.943 197.469 109.063 197.612C112.61 198.95 116.156 200.288 119.917 201.683C122.604 202.229 125.291 202.775 128.117 203.447C133.539 204.232 138.976 204.337 144.425 203.795C144.652 203.772 144.859 203.552 145.381 203.366C147.423 203.144 149.515 203.132 151.496 202.655C154.825 201.853 158.164 200.962 161.351 199.725C164.714 198.419 167.968 196.786 171.152 195.077C176.361 192.283 180.898 188.536 185.065 184.384C187.37 182.087 189.511 179.597 191.504 177.022C194.026 173.765 196.226 170.279 197.501 166.184C194.737 168.008 192.23 170.192 189.446 171.935C186.593 173.721 183.544 175.248 180.444 176.57C177.404 177.867 174.241 178.952 171.042 179.78C167.854 180.606 164.555 180.998 161.146 181.435C160.983 181.386 160.817 181.286 160.657 181.295C154.867 181.627 149.163 181.033 143.293 179.655C142.315 179.352 141.322 179.09 140.361 178.738C138.318 177.991 136.257 177.278 134.266 176.408C127.763 173.569 122.034 169.539 116.841 164.747C115.397 163.414 114.1 161.89 112.908 160.321C110.773 157.51 108.589 154.71 106.752 151.705C103.69 146.699 101.375 141.337 100.081 135.38C99.8496 134.584 99.4713 133.798 99.4121 132.99C99.0718 128.339 98.8072 123.682 98.5543 118.772C98.7333 116.84 98.8698 114.903 99.0996 112.977C99.6627 108.258 100.837 103.664 102.669 99.3034C106.591 89.9653 112.544 82.0746 120.294 75.5452C120.626 75.2653 120.902 74.9187 121.204 74.6032C120.497 74.3931 119.954 74.3875 119.466 74.5493C116.877 75.4089 114.265 76.2163 111.733 77.2233C109.06 78.2859 106.362 79.3617 103.862 80.7653C95.4276 85.501 88.5369 91.9737 83.0277 99.9151C80.6452 103.349 78.5162 106.932 77.0827 110.88C75.8105 114.383 74.5932 117.906 73.2863 121.611C72.7801 124.383 72.2739 127.154 71.7151 130.169C71.6225 134.426 71.1729 138.714 71.5354 142.932C71.9146 147.345 73.0746 151.69 73.9076 156.259C74.9547 158.972 76.0017 161.684 77.0582 164.366C77.0582 164.366 77.0269 164.358 77.0454 164.548C77.2388 164.938 77.4322 165.328 77.6404 165.909C80.2948 171.438 83.6304 176.524 87.6585 181.143C91.8656 185.968 96.5696 190.235 102.135 193.737C102.312 193.845 102.49 193.952 102.689 194.107ZM187.125 98.2522C186.872 98.5298 186.619 98.8074 186.201 99.1554C183.526 101.854 180.786 104.492 178.203 107.275C176.706 108.888 176.512 110.193 177.337 111.805C178.028 113.153 179.1 113.759 180.46 113.549C181.392 113.406 182.447 112.975 183.106 112.326C186.746 108.742 190.34 105.106 193.834 101.38C196.323 98.7247 195.184 96.8495 192.807 95.6834C192.728 95.6443 192.646 95.6106 192.456 95.3833C190.984 95.1174 189.729 95.4704 188.79 96.6751C188.79 96.6751 188.787 96.6571 188.625 96.7285C188.186 97.1845 187.747 97.6406 187.261 98.1049C187.261 98.1049 187.252 98.1525 187.125 98.2522ZM162.455 136.467C165.121 136.692 167.788 136.916 170.685 137.208C173.609 137.67 176.534 138.131 179.613 138.717C180.029 138.789 180.446 138.861 180.892 138.937C182.11 134.689 182.201 130.601 180.717 126.337C179.655 124.249 178.719 122.083 177.485 120.102C176.73 118.889 175.592 117.876 174.493 116.927C173.033 115.668 171.497 114.478 169.889 113.418C168.944 112.795 167.794 112.481 166.556 111.951C162.951 110.728 159.291 110.241 155.311 111.123C154.985 111.239 154.663 111.363 154.335 111.47C152.656 112.016 150.926 112.444 149.306 113.13C146.979 114.114 145.268 115.937 143.443 117.645C141.164 119.778 139.742 122.363 138.577 125.16C137.483 127.785 137.331 130.523 137.433 133.341C137.499 135.175 137.223 137.017 137.923 138.556C143.305 137.914 148.618 137.28 154.155 136.677C156.853 136.589 159.551 136.5 162.455 136.467ZM186.084 128.831C185.293 131.053 186.216 132.887 188.625 133.613C188.843 133.653 189.062 133.726 189.28 133.726C194.336 133.735 199.393 133.74 204.449 133.727C204.789 133.726 205.129 133.577 205.665 133.498C207.21 133.119 207.884 131.947 208.123 130.546C208.355 129.19 207.916 128.01 206.511 127.105C205.792 126.91 205.075 126.554 204.354 126.546C199.416 126.495 194.478 126.494 189.54 126.53C188.038 126.541 186.778 127.111 186.084 128.831ZM163.001 85.4704C162.535 83.1436 161.946 82.7612 159.86 82.4676C157.415 82.1235 156.637 82.6908 155.773 85.0904C155.759 90.9321 155.733 96.7738 155.753 102.615C155.754 103.155 156.051 103.694 156.309 104.401C157.185 105.707 158.765 106.422 160.218 106.025C161.807 105.591 162.795 104.545 162.998 102.592C162.988 96.9528 162.977 91.313 163.001 85.4704ZM137.784 113.643C139.081 113.368 140.597 113.656 141.325 112.034C142.201 110.078 142.103 108.929 140.605 107.388C138.774 105.507 136.862 103.705 135.022 101.833C133.225 100.005 131.48 98.1251 129.701 96.2798C128.707 95.2489 126.967 95.0347 125.591 95.52C123.53 96.2474 123.27 99.5494 124.593 100.895C128.102 104.463 131.493 108.146 134.989 111.726C135.727 112.481 136.715 112.991 137.784 113.643ZM163.55 102.726C163.55 96.7453 163.55 90.7649 163.55 84.7846C163.33 84.9067 163.283 85.0326 163.283 85.1586C163.28 90.9155 163.28 96.6725 163.287 102.429C163.288 102.685 163.358 102.941 163.395 103.197C163.441 103.148 163.495 103.105 163.529 103.049C163.551 103.015 163.542 102.962 163.55 102.726ZM155.219 93.0542C155.219 90.5631 155.219 88.0719 155.219 85.5808C155.157 85.5813 155.095 85.5819 155.033 85.5824C155.033 91.1001 155.033 96.6178 155.033 102.136C155.095 102.136 155.157 102.136 155.219 102.137C155.219 99.1987 155.219 96.2608 155.219 93.0542ZM158.032 181.006C158.901 181.006 159.771 181.006 160.64 181.006C160.635 180.942 160.631 180.877 160.626 180.812C158.259 180.812 155.893 180.812 153.526 180.812C153.526 180.877 153.525 180.941 153.525 181.006C154.939 181.006 156.354 181.006 158.032 181.006Z" fill="#0B0B0B"/>
<path d="M148.474 57.8665C140.326 56.8854 132.157 57.0118 124.008 58.3541C123.835 58.3826 123.667 58.4453 123.39 58.4976C124.66 58.1634 126.026 57.7484 127.422 57.5056C128.732 57.2778 130.073 57.2319 131.622 57.044C135.869 57.0368 139.894 57.0918 143.92 57.1467C145.424 57.3574 146.929 57.568 148.474 57.8665Z" fill="#F0E070"/>
<path d="M128.222 218.159C130.59 218.189 133.04 218.406 135.48 218.327C140.15 218.177 144.814 217.859 149.54 217.696C148.235 218.019 146.87 218.256 145.28 218.54C140.031 218.573 135.005 218.56 129.98 218.546C129.42 218.435 128.859 218.323 128.222 218.159Z" fill="#EAD767"/>
<path d="M57.5945 127.945C57.0012 134.131 56.926 140.379 57.6467 146.735C57.4126 145.78 56.9826 144.718 56.9841 143.657C56.9909 138.768 57.1122 133.88 57.2151 128.991C57.222 128.661 57.415 128.335 57.5945 127.945Z" fill="#F0E070"/>
<path d="M130.058 218.622C135.005 218.56 140.031 218.573 145.185 218.586C144.931 218.766 144.547 219.11 144.168 219.105C139.658 219.054 135.15 218.952 130.641 218.854C130.472 218.85 130.305 218.752 130.058 218.622Z" fill="#FBC729"/>
<path d="M143.881 57.0547C139.894 57.0918 135.869 57.0368 131.717 56.9951C131.912 56.8932 132.232 56.6801 132.553 56.6779C136.037 56.6544 139.522 56.6572 143.006 56.6775C143.285 56.6791 143.563 56.8633 143.881 57.0547Z" fill="#FBC729"/>
<path d="M218.39 133.708C218.375 133.618 218.361 133.527 218.364 133.371C218.521 133.454 218.784 133.602 218.785 133.752C218.812 136.465 218.807 139.178 218.805 141.891C218.805 141.924 218.742 141.989 218.725 141.984C218.643 141.961 218.566 141.918 218.437 141.835C218.436 140.037 218.487 138.286 218.576 136.294C218.538 135.271 218.464 134.49 218.39 133.708Z" fill="#F0E070"/>
<path d="M117.169 215.825C118.768 216.166 120.391 216.593 122.015 217.106C120.407 216.765 118.8 216.338 117.169 215.825Z" fill="#EAD767"/>
<path d="M100.096 135.571C101.375 141.337 103.69 146.699 106.752 151.705C108.589 154.71 110.773 157.51 112.908 160.321C114.1 161.89 115.397 163.414 116.841 164.747C122.034 169.539 127.763 173.569 134.266 176.408C136.257 177.278 138.318 177.991 140.361 178.738C141.321 179.09 142.315 179.352 143.427 179.769C144.296 180.151 145.011 180.553 145.77 180.667C148.457 181.068 151.15 181.509 153.857 181.67C156.329 181.818 158.821 181.623 161.304 181.58C164.555 180.998 167.854 180.606 171.042 179.78C174.241 178.952 177.404 177.867 180.444 176.57C183.544 175.248 186.593 173.721 189.446 171.935C192.23 170.192 194.737 168.008 197.5 166.184C196.226 170.279 194.026 173.765 191.504 177.023C189.511 179.597 187.37 182.087 185.065 184.384C180.898 188.537 176.361 192.283 171.152 195.077C167.968 196.786 164.714 198.419 161.351 199.725C158.164 200.962 154.825 201.853 151.496 202.655C149.515 203.132 147.423 203.144 145.173 203.431C140.345 203.512 135.725 203.543 131.106 203.535C130.063 203.534 129.021 203.396 127.979 203.321C125.291 202.775 122.604 202.229 119.765 201.579C117.163 200.552 114.713 199.627 112.263 198.706C111.157 198.29 110.05 197.881 108.943 197.469C108.943 197.469 108.992 197.447 108.954 197.387C108.209 197.012 107.502 196.697 106.795 196.381C106.795 196.381 106.85 196.369 106.811 196.31C106.436 196.102 106.1 195.952 105.763 195.802C105.763 195.802 105.798 195.796 105.765 195.726C105.117 195.345 104.503 195.034 103.888 194.723C103.888 194.723 103.921 194.718 103.888 194.645C103.484 194.416 103.113 194.259 102.742 194.102C102.742 194.102 102.689 194.107 102.682 194.011C102.461 193.816 102.247 193.718 102.033 193.619C96.5696 190.235 91.8656 185.968 87.6585 181.143C83.6304 176.524 80.2947 171.438 77.6637 165.745C77.467 165.173 77.2469 164.766 77.0269 164.358C77.0269 164.358 77.0581 164.366 77.0601 164.275C76.3374 162.156 75.6327 160.119 74.8772 158.102C74.6139 157.399 74.2249 156.742 73.8933 156.065C73.0746 151.69 71.9146 147.345 71.5354 142.932C71.1728 138.714 71.6225 134.426 71.8018 129.976C72.2698 127.891 72.6729 126.003 73.0226 124.105C73.1857 123.22 73.2453 122.316 73.3517 121.421C74.5932 117.906 75.8104 114.383 77.0827 110.88C78.5162 106.932 80.6452 103.349 83.0277 99.9151C88.5369 91.9737 95.4276 85.501 103.862 80.7653C106.362 79.3617 109.06 78.2859 111.733 77.2233C114.265 76.2163 116.877 75.4089 119.466 74.5493C119.954 74.3875 120.497 74.3931 121.204 74.6032C120.902 74.9187 120.626 75.2653 120.294 75.5452C112.544 82.0746 106.591 89.9654 102.669 99.3034C100.837 103.664 99.6627 108.258 99.0996 112.977C98.8698 114.903 98.7333 116.84 98.4495 118.927C98.336 120.063 98.2658 121.049 98.3292 122.025C98.5864 125.988 98.8521 129.95 99.2034 133.905C99.2547 134.482 99.7863 135.017 100.096 135.571Z" fill="#FBC940"/>
<path d="M166.737 112.029C167.794 112.481 168.944 112.795 169.889 113.418C171.497 114.478 173.033 115.668 174.492 116.927C175.592 117.876 176.73 118.889 177.485 120.102C178.719 122.083 179.655 124.249 180.66 126.508C181.257 130.064 181.922 133.433 181.05 136.904C180.807 137.871 180.688 138.679 179.458 138.592C176.534 138.131 173.609 137.67 170.54 137.088C168.28 136.71 166.164 136.453 163.927 136.188C160.93 136.181 158.054 136.164 155.179 136.204C154.761 136.21 154.347 136.492 153.931 136.647C148.618 137.28 143.305 137.914 137.923 138.556C137.223 137.017 137.499 135.175 137.432 133.341C137.331 130.523 137.483 127.785 138.577 125.16C139.742 122.363 141.164 119.778 143.443 117.645C145.268 115.937 146.979 114.114 149.306 113.13C150.926 112.444 152.656 112.016 154.335 111.47C154.663 111.363 154.985 111.239 155.538 111.134C158.737 111.336 161.711 111.516 164.682 111.726C165.37 111.774 166.052 111.925 166.737 112.029Z" fill="#FBC840"/>
<path d="M155.828 84.8378C156.637 82.6908 157.415 82.1234 159.86 82.4676C161.946 82.7612 162.535 83.1436 162.928 85.667C162.824 86.0389 162.767 86.214 162.767 86.3893C162.76 91.573 162.755 96.7567 162.765 101.94C162.765 102.24 162.892 102.539 162.96 102.839C162.795 104.545 161.807 105.591 160.218 106.025C158.765 106.422 157.185 105.707 156.278 104.205C156.175 103.038 156.048 102.067 156.043 101.095C156.022 96.2873 156.04 91.4796 156.023 86.6721C156.021 86.0605 155.896 85.4492 155.828 84.8378Z" fill="#FBC83F"/>
<path d="M137.686 113.628C136.715 112.991 135.727 112.481 134.989 111.726C131.493 108.146 128.102 104.463 124.593 100.895C123.27 99.5493 123.53 96.2474 125.591 95.52C126.967 95.0346 128.707 95.2488 129.701 96.2798C131.48 98.1251 133.225 100.005 135.022 101.833C136.862 103.705 138.774 105.507 140.605 107.388C142.103 108.928 142.201 110.078 141.325 112.034C140.597 113.656 139.081 113.368 137.686 113.628Z" fill="#FAC941"/>
<path d="M192.565 95.5745C192.646 95.6107 192.728 95.6444 192.807 95.6834C195.184 96.8496 196.323 98.7248 193.834 101.38C190.34 105.106 186.746 108.742 183.105 112.326C182.447 112.975 181.392 113.406 180.46 113.549C179.1 113.759 178.028 113.153 177.337 111.805C176.512 110.193 176.706 108.888 178.203 107.275C180.786 104.492 183.526 101.854 186.346 99.1492C186.745 98.8129 186.998 98.4827 187.252 98.1525C187.252 98.1525 187.261 98.1049 187.377 98.1121C187.924 97.6319 188.356 97.1445 188.787 96.6572C188.787 96.6572 188.79 96.6751 188.877 96.661C190.165 96.2894 191.365 95.9319 192.565 95.5745Z" fill="#FAC940"/>
<path d="M113.276 133.486C111.135 132.932 110.177 131.163 110.965 128.926C111.064 128.697 111.054 128.622 111.013 128.551C111.013 128.551 110.996 128.518 111.104 128.501C111.347 128.235 111.482 127.985 111.616 127.736C111.616 127.736 111.651 127.774 111.731 127.749C113.016 127.489 114.217 127.072 115.425 127.052C120.462 126.971 125.501 127.009 130.54 127.004C130.54 127.004 130.527 127.018 130.578 127.079C131.163 127.626 131.695 128.111 132.228 128.596C133.386 130.542 132.577 132.566 130.043 133.485C124.302 133.481 118.789 133.483 113.276 133.486Z" fill="#FBC83F"/>
<path d="M188.423 133.48C186.216 132.887 185.293 131.053 186.196 128.7C187.064 128.066 187.822 127.564 188.667 127.121C188.971 127.217 189.188 127.284 189.406 127.285C194.394 127.291 199.381 127.295 204.369 127.282C204.708 127.281 205.047 127.141 205.488 127.094C205.94 127.173 206.289 127.224 206.639 127.275C207.916 128.01 208.355 129.19 208.123 130.546C207.884 131.947 207.21 133.119 205.441 133.489C199.619 133.481 194.021 133.481 188.423 133.48Z" fill="#FBC940"/>
<path d="M188.58 127.062C187.822 127.564 187.064 128.066 186.222 128.59C186.778 127.111 188.038 126.541 189.54 126.53C194.478 126.494 199.416 126.495 204.354 126.546C205.075 126.554 205.792 126.91 206.575 127.19C206.289 127.224 205.94 127.173 205.369 127.085C199.625 127.052 194.103 127.057 188.58 127.062Z" fill="#EBCD50"/>
<path d="M130.489 126.911C125.501 127.009 120.462 126.971 115.425 127.052C114.217 127.072 113.016 127.489 111.709 127.736C112.641 127.337 113.668 126.599 114.714 126.57C119.387 126.441 124.066 126.505 128.743 126.529C129.309 126.532 129.873 126.717 130.489 126.911Z" fill="#EBCD50"/>
<path d="M161.225 181.508C158.821 181.623 156.329 181.818 153.857 181.67C151.15 181.509 148.457 181.068 145.77 180.667C145.011 180.553 144.296 180.151 143.543 179.798C149.163 181.033 154.867 181.627 160.657 181.295C160.817 181.286 160.983 181.386 161.225 181.508Z" fill="#EAD767"/>
<path d="M100.088 135.476C99.7863 135.017 99.2547 134.482 99.2034 133.905C98.8521 129.95 98.5864 125.988 98.3292 122.025C98.2658 121.048 98.336 120.063 98.4308 119.055C98.8072 123.682 99.0718 128.339 99.4121 132.99C99.4713 133.798 99.8496 134.584 100.088 135.476Z" fill="#EAD767"/>
<path d="M128.048 203.384C129.021 203.396 130.063 203.534 131.106 203.535C135.725 203.543 140.345 203.512 145.02 203.459C144.859 203.552 144.652 203.772 144.425 203.795C138.976 204.337 133.539 204.231 128.048 203.384Z" fill="#F0E070"/>
<path d="M179.535 138.655C180.688 138.679 180.807 137.871 181.05 136.904C181.922 133.433 181.257 130.064 180.655 126.607C182.201 130.601 182.11 134.689 180.892 138.937C180.446 138.861 180.029 138.789 179.535 138.655Z" fill="#EAD767"/>
<path d="M155.8 84.9641C155.896 85.4493 156.021 86.0605 156.023 86.6722C156.04 91.4797 156.022 96.2873 156.043 101.095C156.048 102.067 156.175 103.038 156.228 104.121C156.051 103.694 155.754 103.155 155.753 102.615C155.733 96.7739 155.759 90.9321 155.8 84.9641Z" fill="#FEF57B"/>
<path d="M163.548 102.822C163.542 102.963 163.551 103.015 163.529 103.049C163.495 103.105 163.441 103.148 163.395 103.197C163.357 102.941 163.288 102.685 163.287 102.429C163.28 96.6725 163.28 90.9155 163.283 85.1586C163.283 85.0326 163.33 84.9067 163.55 84.7846C163.55 90.7649 163.55 96.7453 163.548 102.822Z" fill="#020631"/>
<path d="M166.646 111.99C166.052 111.925 165.37 111.774 164.682 111.726C161.711 111.516 158.737 111.336 155.646 111.131C159.291 110.241 162.951 110.729 166.646 111.99Z" fill="#EAD767"/>
<path d="M155.219 93.1885C155.219 96.2607 155.219 99.1987 155.219 102.137C155.157 102.136 155.095 102.136 155.033 102.136C155.033 96.6178 155.033 91.1001 155.033 85.5824C155.095 85.5818 155.157 85.5813 155.219 85.5808C155.219 88.0719 155.219 90.5631 155.219 93.1885Z" fill="#0D1130"/>
<path d="M109.003 197.541C110.05 197.881 111.157 198.29 112.263 198.706C114.713 199.627 117.163 200.552 119.658 201.55C116.156 200.288 112.61 198.95 109.003 197.541Z" fill="#F0E070"/>
<path d="M162.979 102.716C162.892 102.54 162.765 102.24 162.765 101.94C162.755 96.7567 162.76 91.573 162.767 86.3893C162.767 86.2141 162.824 86.0389 162.911 85.7685C162.977 91.313 162.988 96.9528 162.979 102.716Z" fill="#FEF57B"/>
<path d="M188.524 133.547C194.021 133.48 199.618 133.481 205.343 133.489C205.129 133.577 204.789 133.726 204.449 133.727C199.393 133.74 194.336 133.735 189.28 133.726C189.061 133.726 188.843 133.653 188.524 133.547Z" fill="#E1CA96"/>
<path d="M113.37 133.555C118.789 133.483 124.301 133.481 129.949 133.479C129.7 133.565 129.316 133.724 128.931 133.726C123.948 133.741 118.965 133.735 113.982 133.728C113.809 133.728 113.637 133.66 113.37 133.555Z" fill="#E1CA96"/>
<path d="M73.9004 156.162C74.2249 156.742 74.6139 157.398 74.8772 158.102C75.6327 160.119 76.3374 162.156 77.0554 164.291C76.0017 161.684 74.9547 158.972 73.9004 156.162Z" fill="#EAD767"/>
<path d="M73.319 121.516C73.2453 122.316 73.1857 123.22 73.0227 124.105C72.6729 126.003 72.2698 127.891 71.8281 129.854C72.2739 127.154 72.7801 124.383 73.319 121.516Z" fill="#F0E070"/>
<path d="M164.049 136.196C166.164 136.453 168.28 136.71 170.424 137.054C167.788 136.916 165.121 136.692 162.458 136.424C162.99 136.319 163.519 136.257 164.049 136.196Z" fill="#F0E070"/>
<path d="M163.927 136.188C163.519 136.257 162.99 136.319 162.355 136.396C159.551 136.5 156.853 136.589 154.043 136.662C154.347 136.492 154.761 136.21 155.179 136.204C158.054 136.164 160.93 136.181 163.927 136.188Z" fill="#FEF57B"/>
<path d="M157.9 181.006C156.354 181.006 154.939 181.006 153.525 181.006C153.525 180.941 153.526 180.877 153.526 180.812C155.893 180.812 158.26 180.812 160.626 180.812C160.631 180.877 160.635 180.942 160.64 181.006C159.771 181.006 158.901 181.006 157.9 181.006Z" fill="#0D1130"/>
<path d="M192.51 95.4789C191.365 95.9319 190.165 96.2894 188.868 96.66C189.729 95.4704 190.984 95.1174 192.51 95.4789Z" fill="#EAD767"/>
<path d="M132.226 128.512C131.695 128.111 131.163 127.626 130.575 127.07C131.088 127.476 131.656 127.951 132.226 128.512Z" fill="#EBCD50"/>
<path d="M106.853 196.456C107.502 196.697 108.209 197.013 108.963 197.413C108.31 197.175 107.61 196.853 106.853 196.456Z" fill="#F0E070"/>
<path d="M188.706 96.6928C188.356 97.1445 187.924 97.6319 187.401 98.1079C187.747 97.6406 188.186 97.1845 188.706 96.6928Z" fill="#EAD767"/>
<path d="M103.934 194.803C104.503 195.034 105.117 195.345 105.767 195.743C105.195 195.515 104.588 195.199 103.934 194.803Z" fill="#F0E070"/>
<path d="M218.379 133.829C218.464 134.49 218.539 135.271 218.602 136.181C218.517 135.523 218.443 134.737 218.379 133.829Z" fill="#FBC940"/>
<path d="M77.0361 164.453C77.2469 164.766 77.467 165.173 77.6563 165.65C77.4322 165.328 77.2388 164.938 77.0361 164.453Z" fill="#EAD767"/>
<path d="M102.812 194.149C103.113 194.259 103.484 194.415 103.89 194.661C103.577 194.566 103.229 194.381 102.812 194.149Z" fill="#F0E070"/>
<path d="M187.189 98.2023C186.999 98.4826 186.745 98.8128 186.429 99.114C186.619 98.8074 186.872 98.5298 187.189 98.2023Z" fill="#EAD767"/>
<path d="M105.809 195.881C106.1 195.952 106.436 196.102 106.816 196.338C106.524 196.27 106.189 196.115 105.809 195.881Z" fill="#F0E070"/>
<path d="M111.546 127.777C111.482 127.985 111.347 128.235 111.117 128.487C111.172 128.266 111.324 128.042 111.546 127.777Z" fill="#EBCD50"/>
<path d="M102.084 193.678C102.247 193.718 102.461 193.816 102.671 193.987C102.49 193.952 102.312 193.845 102.084 193.678Z" fill="#F0E070"/>
<path d="M110.985 128.601C111.053 128.622 111.063 128.696 111.014 128.824C110.948 128.803 110.939 128.729 110.985 128.601Z" fill="#EBCD50"/>
<path d="M188.666 127.121C194.103 127.057 199.625 127.052 205.267 127.056C205.047 127.141 204.708 127.281 204.369 127.282C199.381 127.295 194.394 127.291 189.406 127.284C189.188 127.284 188.971 127.217 188.666 127.121Z" fill="#FBC729"/>
</g>
<defs>
<clipPath id="clip0_7_3">
<rect width="275" height="275" fill="white"/>
</clipPath>
</defs>
</svg>
